<svg xmlns="http://www.w3.org/2000/svg" viewBox="0 0 342.43 184.47"><defs><style>.cls-1{fill:#fff;}</style></defs><g id="Layer_2" data-name="Layer 2"><g id="Layer_1-2" data-name="Layer 1"><path class="cls-1" d="M0,91.7C0,74.55,0,57.4,0,40.26.06,17.29,17.39,0,40.44,0H301.7c23.58,0,40.7,17.17,40.72,40.78q0,51.84,0,103.7a39.47,39.47,0,0,1-39.92,39.91q-31.68,0-63.36,0-22.31,0-34.65-18.55c-3.27-4.9-6.53-9.82-9.81-14.71a13.36,13.36,0,0,0-11.79-6.28c-18.07,0-17.28-1.2-27.49,14.58-1.87,2.88-3.7,5.78-5.75,8.52-7.88,10.56-18.43,16.3-31.64,16.38q-39.07.24-78.17,0C17.3,184.29,0,166.84,0,144.37Q0,118,0,91.7Z"/></g></g></svg>