<svg xmlns="http://www.w3.org/2000/svg" width="162.021" height="87.281" viewBox="0 0 162.021 87.281">
  <path id="Path_31" data-name="Path 31" d="M0,43.387V19.051A18.686,18.686,0,0,1,19.134,0H142.755c11.158,0,19.265,8.122,19.265,19.3V68.363a18.687,18.687,0,0,1-18.895,18.89h-29.98a18.634,18.634,0,0,1-16.4-8.778c-1.562-2.317-3.088-4.644-4.639-6.961a6.321,6.321,0,0,0-5.576-2.968c-8.554,0-8.185-.568-13.017,6.9-.88,1.359-1.744,2.733-2.713,4.03a18.108,18.108,0,0,1-14.974,7.753q-18.494.109-36.967,0A18.624,18.624,0,0,1,0,68.311Z"/>
</svg>
