<svg id="Group_119" data-name="Group 119" xmlns="http://www.w3.org/2000/svg" width="61.063" height="34.468" viewBox="0 0 61.063 34.468">
  <g id="Group_116" data-name="Group 116" transform="translate(0 0)">
    <g id="Layer_2" data-name="Layer 2" transform="translate(0)">
      <g id="Layer_1" data-name="Layer 1">
        <path id="Path_24" data-name="Path 24" d="M61.008,33.446a30.7,30.7,0,0,0-3.9-11.757A28.762,28.762,0,0,0,51.389,14.6a30.1,30.1,0,0,0-5.234-3.812c-.444-.246-.608-.493-.311-.99.908-1.516,1.784-3.054,2.663-4.586.688-1.194,1.38-2.386,2.039-3.6A.974.974,0,0,0,50.227.193a1.032,1.032,0,0,0-1.473.349,3.914,3.914,0,0,0-.232.38c-1.516,2.639-3.046,5.279-4.551,7.93a.67.67,0,0,1-1.018.34A27.153,27.153,0,0,0,36.91,7.3a31.909,31.909,0,0,0-11.38-.249,29.569,29.569,0,0,0-7.5,2.153c-.374.167-.672.182-.917-.269-.7-1.3-1.451-2.568-2.188-3.846C14.062,3.594,13.2,2.1,12.326.622A1.047,1.047,0,0,0,10.887.141,1.023,1.023,0,0,0,10.5,1.658c.065.132.136.262.21.391,1.479,2.556,2.932,5.123,4.438,7.66.336.567.185.843-.308,1.113A26.845,26.845,0,0,0,11.175,13.3,29.649,29.649,0,0,0,2.4,24.7,30.328,30.328,0,0,0,.01,33.727c-.07.632.117.754.7.754q14.9-.022,29.8-.009H60.157C61.1,34.473,61.132,34.434,61.008,33.446ZM16.566,25.791A2.577,2.577,0,0,1,13.9,23.216a2.551,2.551,0,0,1,5.1,0A2.589,2.589,0,0,1,16.566,25.791Zm28,0a2.661,2.661,0,0,1-2.553-2.561,2.585,2.585,0,0,1,2.614-2.542,2.475,2.475,0,0,1,2.515,2.531,2.571,2.571,0,0,1-2.576,2.567Z" transform="translate(0.004 -0.013)" fill="#3bd480"/>
      </g>
    </g>
    <ellipse id="Ellipse_1" data-name="Ellipse 1" cx="5" cy="4" rx="5" ry="4" transform="translate(11.634 20.056)" fill="#3bd480"/>
    <ellipse id="Ellipse_2" data-name="Ellipse 2" cx="5" cy="4" rx="5" ry="4" transform="translate(39.634 20.056)" fill="#3bd480"/>
  </g>
  <text id="_.apk" data-name=".apk" transform="translate(15.634 27.056)" fill="#1c1d1f" font-size="16" font-family="ProductSans-Regular, Product Sans"><tspan x="0" y="0">.apk</tspan></text>
</svg>
