<svg id="Layer_2" data-name="Layer 2" xmlns="http://www.w3.org/2000/svg" width="36.118" height="36.12" viewBox="0 0 36.118 36.12">
  <g id="Layer_1" data-name="Layer 1">
    <path id="Path_25" data-name="Path 25" d="M0,19.142v-2.13c.052.031.045-.023.046-.041.015-.165.027-.329.041-.494a17.5,17.5,0,0,1,1.045-4.669A18.118,18.118,0,0,1,13.149.7,17.741,17.741,0,0,1,17,.052c.045,0,.114.029.132-.052h1.9c.045.05.045.05.132.056a16.974,16.974,0,0,1,4.563.867A17.9,17.9,0,0,1,34.2,9.949a17.394,17.394,0,0,1,1.868,6.582c0,.039-.031.108.054.116v2.859a.124.124,0,0,0-.056.118,17.264,17.264,0,0,1-.614,3.4A18.1,18.1,0,0,1,23.688,35.249a17.566,17.566,0,0,1-3.978.815c-.072,0-.072,0-.114.056H16.554c0-.079-.064-.048-.1-.052-.228-.027-.459-.043-.687-.074a17.369,17.369,0,0,1-4.892-1.355A17.919,17.919,0,0,1,1.113,24.284a17.011,17.011,0,0,1-1.059-5.01C.05,19.229.083,19.166,0,19.142ZM9.159,16.4a1.618,1.618,0,0,0-1.256.474c-.7.707-1.413,1.409-2.116,2.118a1.535,1.535,0,0,0,0,2.263l1.105,1.107,6.776,6.776a1.6,1.6,0,0,0,.714.453A1.58,1.58,0,0,0,16,29.13q6.332-6.35,12.669-12.674c.362-.362.732-.716,1.082-1.09a1.506,1.506,0,0,0,0-2.073C29,12.518,28.231,11.761,27.465,11a1.4,1.4,0,0,0-.982-.387,1.568,1.568,0,0,0-1.206.511q-5.169,5.182-10.342,10.363c-.093.093-.136.095-.228,0-.757-.774-1.522-1.529-2.282-2.294s-1.51-1.512-2.261-2.273A1.5,1.5,0,0,0,9.159,16.4Z" fill="#28ca42"/>
  </g>
</svg>
