<svg xmlns="http://www.w3.org/2000/svg" width="63.065" height="84.087" viewBox="0 0 63.065 84.087">
  <path id="clipboard-check-solid" d="M55.182,10.511H42.044a10.511,10.511,0,1,0-21.022,0H7.883A7.885,7.885,0,0,0,0,18.394V76.2a7.885,7.885,0,0,0,7.883,7.883h47.3A7.885,7.885,0,0,0,63.065,76.2V18.394A7.885,7.885,0,0,0,55.182,10.511ZM31.533,6.569a3.942,3.942,0,1,1-3.942,3.942A3.932,3.932,0,0,1,31.533,6.569ZM51.438,44.638,27.952,67.927a1.973,1.973,0,0,1-2.792-.016L11.595,54.23a1.973,1.973,0,0,1,.016-2.792l4.664-4.631a1.973,1.973,0,0,1,2.792.016l7.555,7.62L44.031,37.166a1.973,1.973,0,0,1,2.792.016l4.631,4.664A1.973,1.973,0,0,1,51.438,44.638Z" fill="#2cd055"/>
</svg>
