<svg xmlns="http://www.w3.org/2000/svg" width="63.316" height="84.421" viewBox="0 0 63.316 84.421">
  <path id="file-upload-solid" d="M36.934,22.424V0H3.957A3.948,3.948,0,0,0,0,3.957V80.464a3.948,3.948,0,0,0,3.957,3.957h55.4a3.948,3.948,0,0,0,3.957-3.957V26.382H40.891A3.969,3.969,0,0,1,36.934,22.424ZM47.681,58.041H36.934V71.232A2.637,2.637,0,0,1,34.3,73.87H29.02a2.637,2.637,0,0,1-2.638-2.638V58.041H15.634a2.638,2.638,0,0,1-1.858-4.511l15.9-15.779a2.811,2.811,0,0,1,3.964,0l15.9,15.779A2.637,2.637,0,0,1,47.681,58.041Zm14.48-40.728L46.019,1.154A3.954,3.954,0,0,0,43.216,0H42.211V21.105H63.316V20.1A3.945,3.945,0,0,0,62.162,17.313Z" fill="#007cfd"/>
</svg>
