<svg xmlns="http://www.w3.org/2000/svg" width="70.268" height="75.726" viewBox="0 0 70.268 75.726">
  <path id="Union_3" data-name="Union 3" d="M28.4,57.457V49.1H23.355v8.354a3.788,3.788,0,1,1-7.576,0V49.1H13.07a4.075,4.075,0,0,1-4.084-4.084V20.531H42.772V45.019A4.075,4.075,0,0,1,38.688,49.1H35.979v8.354a3.788,3.788,0,1,1-7.576,0ZM44.182,39.449V23.669a3.788,3.788,0,1,1,7.576,0v15.78a3.788,3.788,0,1,1-7.576,0ZM0,39.449V23.669a3.766,3.766,0,0,1,3.788-3.788,3.766,3.766,0,0,1,3.788,3.788v15.78a3.766,3.766,0,0,1-3.788,3.789A3.766,3.766,0,0,1,0,39.449ZM8.986,19.2A15.437,15.437,0,0,1,17.595,5.621L14.926.8A.522.522,0,0,1,15.135.07a.532.532,0,0,1,.731.209l2.7,4.873a18.209,18.209,0,0,1,14.619,0l2.7-4.873A.532.532,0,0,1,36.623.07.523.523,0,0,1,36.832.8L34.163,5.621A15.437,15.437,0,0,1,42.772,19.2Z" transform="translate(0 18.548) rotate(-21)" fill="#fff"/>
</svg>
