<svg xmlns="http://www.w3.org/2000/svg" width="67.031" height="40.5" viewBox="0 0 67.031 40.5">
  <g id="Layer_2" data-name="Layer 2" transform="translate(-0.045 0.02)">
    <g id="Layer_1" data-name="Layer 1" transform="translate(0.045 -0.02)">
      <path id="Path_47" data-name="Path 47" d="M59.572,4.577A20.233,20.233,0,0,0,51.562.664,24.89,24.89,0,0,0,46.455.018C45.187-.038,43.9-.017,42.624-.017H24.462c-1.27,0-2.565,0-3.833.027a25.142,25.142,0,0,0-5.1.654A20.1,20.1,0,0,0,15.554,39.8a24.906,24.906,0,0,0,5.1.646c1.268.055,2.565.029,3.833.029H42.651c1.268,0,2.563,0,3.833-.029a25.125,25.125,0,0,0,5.1-.646A20.094,20.094,0,0,0,59.572,4.577Zm-8.879,21.1a6.934,6.934,0,0,1-2.941,1.161,20.944,20.944,0,0,1-3.185.135h-22a20.8,20.8,0,0,1-3.185-.135,6.808,6.808,0,0,1-2.95-1.161,6.625,6.625,0,0,1,0-10.9,6.942,6.942,0,0,1,2.943-1.161,20.942,20.942,0,0,1,3.185-.133h22a20.8,20.8,0,0,1,3.185.133,6.8,6.8,0,0,1,2.941,1.161,6.644,6.644,0,0,1,2.861,5.452A6.5,6.5,0,0,1,50.693,25.682Z" transform="translate(-0.045 0.02)" fill="#fff"/>
    </g>
  </g>
</svg>
