<svg xmlns="http://www.w3.org/2000/svg" width="48.15" height="42.132" viewBox="0 0 48.15 42.132">
  <path id="sliders-h-solid" d="M46.646,65.1h-31.6V63.6a1.509,1.509,0,0,0-1.5-1.5H10.533a1.509,1.509,0,0,0-1.5,1.5v1.5H1.5a1.509,1.509,0,0,0-1.5,1.5v3.009a1.509,1.509,0,0,0,1.5,1.5H9.028v1.5a1.509,1.509,0,0,0,1.5,1.5h3.009a1.509,1.509,0,0,0,1.5-1.5v-1.5h31.6a1.509,1.509,0,0,0,1.5-1.5V66.608A1.509,1.509,0,0,0,46.646,65.1Zm0-15.047H39.122v-1.5a1.509,1.509,0,0,0-1.5-1.5H34.608a1.509,1.509,0,0,0-1.5,1.5v1.5H1.5a1.509,1.509,0,0,0-1.5,1.5V54.57a1.509,1.509,0,0,0,1.5,1.5H33.1v1.5a1.509,1.509,0,0,0,1.5,1.5h3.009a1.509,1.509,0,0,0,1.5-1.5v-1.5h7.523a1.509,1.509,0,0,0,1.5-1.5V51.561A1.509,1.509,0,0,0,46.646,50.056Zm0-15.047H27.085V33.5a1.509,1.509,0,0,0-1.5-1.5H22.57a1.509,1.509,0,0,0-1.5,1.5v1.5H1.5a1.509,1.509,0,0,0-1.5,1.5v3.009a1.509,1.509,0,0,0,1.5,1.5H21.066v1.5a1.509,1.509,0,0,0,1.5,1.5H25.58a1.509,1.509,0,0,0,1.5-1.5v-1.5H46.646a1.509,1.509,0,0,0,1.5-1.5V36.514A1.509,1.509,0,0,0,46.646,35.009Z" transform="translate(0 -32)" fill="#fff"/>
</svg>
