<svg xmlns="http://www.w3.org/2000/svg" viewBox="0 0 752.85 184.47"><defs><style>.cls-1{fill:#fff;}.cls-2{fill:#f41414;}</style></defs><g id="Layer_2" data-name="Layer 2"><g id="Layer_1-2" data-name="Layer 1"><path class="cls-1" d="M0,91.7C0,74.55,0,57.4,0,40.26.06,17.29,17.39,0,40.44,0H301.7c23.58,0,40.7,17.17,40.72,40.78q0,51.84,0,103.7a39.47,39.47,0,0,1-39.92,39.91q-31.68,0-63.36,0-22.31,0-34.65-18.55c-3.27-4.9-6.53-9.82-9.81-14.71a13.36,13.36,0,0,0-11.79-6.28c-18.07,0-17.28-1.2-27.49,14.58-1.87,2.88-3.7,5.78-5.75,8.52-7.88,10.56-18.43,16.3-31.64,16.38q-39.07.24-78.17,0C17.3,184.29,0,166.84,0,144.37Q0,118,0,91.7Z"/><path class="cls-1" d="M548.11,95.82H534.78a3.39,3.39,0,0,0-.68.13A10.63,10.63,0,0,0,528.49,99c-7.14,7.57-14.24,15.18-21.48,22.65a18.87,18.87,0,0,1-14,6.06c-5.3,0-10.61,0-15.91,0a1.21,1.21,0,0,0-1.3.86,10.56,10.56,0,0,1-13,5.74,10.66,10.66,0,0,1,4.36-20.73,10.29,10.29,0,0,1,8.67,6.31,1.13,1.13,0,0,0,1.23.79c5.5,0,11,0,16.51,0a10.5,10.5,0,0,0,7.91-3.43q9.69-10.27,19.41-20.53c.24-.25.47-.52.81-.89H412.82v8.72L391.47,92.21l21.27-12.28v8.68H495c-.26-.3-.44-.52-.64-.72L474.75,67.14a10.39,10.39,0,0,0-7.82-3.37c-5.24,0-10.48,0-15.72,0h-1v7.06H428.86V49.61h21.25v7.08h1.15c5,0,10,0,15,0a19,19,0,0,1,14.1,6.09c7.26,7.5,14.37,15.15,21.55,22.72a9.66,9.66,0,0,0,7.12,3.16c12.88.06,25.76,0,38.65,0l.38,0a17.85,17.85,0,1,1,0,7.17Z"/><path class="cls-2" d="M693.41,142.85c-10,0-20,0-29.94,0-6.53,0-13.07,0-19.6-.21a17.73,17.73,0,0,1-6.4-1.41,7.61,7.61,0,0,1-4.26-9.37,36.33,36.33,0,0,1,3.65-8c8-13.35,16.24-26.62,24.36-39.92,7.3-12,14.56-23.92,21.88-35.85,1.83-3,4.2-5.36,7.76-6.22a8.47,8.47,0,0,1,8.69,2.62,72.2,72.2,0,0,1,6.66,9.4c4.67,7.45,9.18,15,13.75,22.49l18.75,30.8c3.95,6.48,7.95,13,11.86,19.46,1.79,3,2.9,6.21,1.91,9.74-.94,3.37-4.45,6-8.39,6.14-3.39.17-6.8.12-10.2.15-5.67.05-11.34.12-17,.12-4.75,0-9.51-.09-14.27-.12h-9.19Zm-8-54.37h-.05v15.58a4.74,4.74,0,0,0,4.81,5c1.54.07,3.08,0,4.61,0,3.83,0,5.68-1.81,5.69-5.61,0-4.49,0-9,0-13.48,0-5.58,0-11.16,0-16.73,0-3.32-1.72-5.3-4.8-5.46a47.42,47.42,0,0,0-6,.07,4.45,4.45,0,0,0-4.29,4.6C685.43,77.83,685.44,83.15,685.44,88.48Zm7.43,28.12a7.68,7.68,0,0,0-7.62,7.36,7.91,7.91,0,0,0,7.62,7.82,7.81,7.81,0,0,0,7.69-7.56A7.53,7.53,0,0,0,692.87,116.6Z"/></g></g></svg>